<?xml version="1.0" standalone="no"?>
<!DOCTYPE svg PUBLIC "-//W3C//DTD SVG 20010904//EN"
 "http://www.w3.org/TR/2001/REC-SVG-20010904/DTD/svg10.dtd">
<svg version="1.0" xmlns="http://www.w3.org/2000/svg"
 width="1920.000000pt" height="1920.000000pt" viewBox="0 0 1920.000000 1920.000000"
 preserveAspectRatio="xMidYMid meet">
<metadata>
Created by potrace 1.14, written by Peter Selinger 2001-2017
</metadata>
<g transform="translate(0.000000,1920.000000) scale(0.100000,-0.100000)"
fill="#000000" stroke="none">
<path d="M4227 18834 c-1 -1 -51 -5 -112 -8 -60 -3 -121 -8 -135 -10 -14 -3
-56 -7 -94 -11 -38 -3 -72 -8 -75 -9 -3 -2 -33 -7 -66 -10 -207 -24 -560 -120
-835 -229 -150 -59 -444 -210 -590 -302 -116 -73 -345 -239 -415 -300 -16 -14
-57 -50 -90 -78 -237 -206 -491 -503 -687 -802 -224 -342 -438 -812 -543
-1190 -45 -164 -64 -233 -69 -260 -3 -16 -12 -61 -21 -98 -21 -96 -25 -118
-40 -212 -3 -22 -7 -49 -10 -60 -2 -11 -7 -42 -10 -70 -4 -27 -8 -61 -11 -75
-2 -14 -7 -47 -9 -75 -3 -27 -7 -68 -10 -90 -4 -38 -11 -130 -20 -275 -6 -84
-6 -489 0 -600 6 -116 15 -246 20 -284 2 -17 7 -58 10 -91 11 -104 16 -150 20
-165 2 -8 7 -35 10 -60 3 -25 13 -83 22 -130 8 -47 17 -96 20 -110 2 -14 8
-41 13 -60 5 -19 11 -47 14 -61 11 -63 72 -276 121 -424 109 -330 244 -613
440 -928 158 -255 469 -610 705 -808 36 -29 67 -56 70 -59 14 -15 226 -168
269 -195 9 -6 48 -31 86 -56 218 -143 507 -280 789 -374 182 -61 448 -127 606
-150 24 -4 47 -8 50 -10 3 -2 34 -6 70 -10 36 -4 67 -8 70 -10 3 -2 41 -6 85
-10 44 -4 92 -8 107 -10 187 -22 790 -23 878 0 8 2 51 7 94 10 43 4 86 8 95
10 34 6 97 16 126 20 58 7 192 36 321 70 635 165 1209 506 1605 952 l47 53 10
-28 c101 -275 176 -415 324 -602 210 -266 525 -490 892 -635 89 -35 96 -40 70
-46 -289 -67 -429 -107 -594 -171 -131 -50 -343 -151 -434 -206 -37 -23 -70
-42 -73 -42 -7 0 -151 -100 -238 -165 -350 -262 -606 -589 -768 -977 -30 -74
-89 -258 -103 -323 -16 -80 -25 -125 -28 -155 -3 -19 -8 -62 -12 -95 -13 -112
-7 -370 12 -490 94 -601 419 -1088 939 -1405 209 -128 507 -248 736 -296 75
-15 127 -25 149 -29 14 -1 52 -8 85 -14 58 -10 80 -12 245 -28 100 -9 533 -9
640 0 86 8 224 24 270 31 14 3 41 7 60 10 350 52 757 207 1065 404 67 43 235
160 245 172 3 3 45 38 93 78 157 131 341 326 466 492 35 47 67 89 71 93 4 4
34 -27 66 -70 32 -42 66 -84 74 -93 8 -9 53 -65 100 -125 89 -114 348 -443
362 -460 5 -5 40 -50 79 -100 78 -100 153 -174 215 -211 43 -25 139 -61 189
-70 37 -7 295 -14 510 -14 l161 0 52 -113 c65 -140 160 -292 259 -416 79 -99
255 -279 332 -341 24 -19 49 -40 55 -45 70 -65 365 -265 511 -347 120 -66 329
-171 430 -216 50 -22 110 -49 135 -60 122 -56 412 -165 680 -258 176 -60 428
-154 505 -189 17 -7 71 -31 121 -53 115 -51 299 -143 389 -195 70 -40 236
-147 245 -157 3 -3 21 -17 40 -30 103 -70 273 -233 351 -335 123 -162 217
-384 244 -580 3 -23 8 -52 10 -65 11 -48 7 -346 -4 -427 -54 -383 -223 -652
-531 -845 -133 -84 -309 -147 -500 -179 -213 -36 -526 -29 -730 16 -14 4 -36
8 -50 11 -141 28 -389 121 -540 201 -73 39 -234 141 -272 172 -7 6 -50 41 -96
77 -95 75 -295 270 -399 389 -94 107 -243 305 -338 449 -76 116 -235 374 -235
381 0 2 -14 27 -31 56 -16 28 -66 122 -111 208 -137 264 -144 275 -221 311
-85 39 -220 -18 -257 -108 -14 -35 -18 -119 -8 -162 3 -14 9 -45 14 -70 4 -25
8 -47 9 -50 1 -3 5 -25 9 -50 5 -25 10 -52 11 -60 2 -8 13 -64 25 -125 12 -60
28 -141 35 -180 8 -38 16 -83 19 -100 3 -16 8 -41 11 -55 3 -14 16 -86 30
-160 14 -74 34 -178 45 -230 21 -107 47 -240 55 -285 2 -16 7 -41 10 -55 3
-14 16 -83 30 -155 27 -141 30 -156 45 -230 5 -27 12 -66 15 -85 3 -19 8 -42
10 -50 2 -8 7 -31 10 -50 3 -19 8 -42 10 -50 2 -8 7 -33 10 -55 4 -22 8 -44 9
-50 2 -5 6 -28 10 -50 14 -75 47 -144 88 -180 48 -44 78 -56 139 -57 98 0 175
60 346 272 168 209 253 280 334 281 73 1 202 -53 331 -140 79 -52 420 -220
430 -211 2 2 21 -6 43 -17 94 -47 308 -109 465 -133 41 -6 86 -13 100 -16 133
-22 701 -22 815 0 11 2 52 7 90 12 39 4 72 8 75 9 3 1 30 5 60 9 45 7 227 44
291 60 407 102 842 340 1129 618 209 203 394 471 494 718 15 36 31 74 36 85
11 25 53 161 73 235 22 79 42 185 52 271 3 24 8 67 11 94 8 65 8 386 0 450 -4
28 -8 68 -11 91 -15 147 -71 387 -124 533 -44 117 -122 278 -175 360 -25 39
-46 76 -46 80 0 5 -3 11 -7 13 -5 1 -28 30 -53 63 -24 33 -49 66 -55 73 -5 8
-66 71 -135 142 -401 412 -965 731 -1924 1090 -387 144 -487 187 -756 318
-447 218 -761 462 -953 739 -100 144 -194 392 -222 586 -27 191 -23 433 11
589 8 40 17 80 19 89 26 122 126 337 207 444 221 291 542 467 933 510 57 7
350 7 380 1 11 -2 52 -7 90 -11 78 -7 254 -44 357 -74 320 -93 644 -273 903
-501 85 -75 318 -311 386 -390 251 -293 534 -722 772 -1170 72 -136 103 -176
165 -206 43 -22 61 -25 98 -20 114 15 186 103 178 216 -2 42 -16 95 -134 535
-51 187 -93 347 -95 355 -2 8 -24 89 -48 180 -25 91 -57 210 -72 265 -14 55
-35 132 -45 170 -11 39 -30 113 -44 165 -14 52 -37 138 -51 190 -14 52 -28
103 -30 113 -9 38 -86 324 -101 377 -20 68 -49 127 -78 158 -32 36 -99 62
-156 62 -101 0 -174 -52 -355 -255 -164 -183 -214 -221 -304 -232 -87 -10
-151 13 -438 160 -194 99 -488 207 -659 243 -110 22 -103 21 -169 29 -33 4
-69 9 -80 11 -130 24 -681 24 -865 -1 -19 -2 -55 -7 -80 -10 -25 -3 -56 -7
-70 -10 -14 -2 -42 -7 -62 -10 -21 -2 -81 -14 -135 -26 -807 -172 -1454 -644
-1773 -1294 -32 -66 -75 -165 -95 -220 -20 -55 -39 -108 -43 -119 -7 -16 -14
-10 -52 40 -25 32 -50 65 -57 74 -64 79 -253 322 -253 325 0 2 71 129 157 282
86 153 169 301 184 328 15 28 50 90 78 138 28 49 51 90 51 91 0 2 32 58 70
125 39 68 70 124 70 126 0 8 101 169 167 265 127 186 291 377 429 501 116 103
290 215 444 286 158 73 163 76 213 112 57 42 87 99 87 164 0 90 -47 152 -135
176 -28 8 -360 11 -1082 11 -1129 0 -1096 1 -1160 -53 -80 -69 -72 -195 16
-254 35 -24 113 -49 211 -69 14 -3 48 -12 77 -20 29 -8 65 -17 80 -20 65 -12
173 -48 234 -81 226 -117 296 -364 194 -676 -13 -39 -122 -270 -243 -512 -120
-242 -245 -493 -276 -558 l-58 -117 -77 97 c-42 54 -101 130 -131 168 -66 85
-64 83 -93 120 -14 17 -205 262 -426 545 -221 283 -412 529 -425 545 -222 285
-317 392 -467 531 -106 97 -270 213 -401 284 -54 29 -86 51 -78 54 8 3 67 19
130 36 792 217 1352 557 1632 990 148 227 238 494 264 776 12 135 6 378 -11
459 -3 11 -7 32 -9 46 -7 45 -54 211 -76 267 -100 262 -296 514 -545 704 -272
207 -636 363 -1020 437 -124 24 -158 30 -215 36 -25 3 -61 7 -80 10 -200 26
-711 26 -930 0 -19 -2 -57 -7 -85 -10 -723 -80 -1371 -401 -1780 -880 -234
-273 -411 -653 -469 -1000 -14 -86 -27 -197 -30 -255 -2 -36 -4 -72 -5 -82 -1
-23 -126 -181 -228 -289 -74 -77 -144 -140 -288 -257 -39 -32 -231 -149 -310
-189 -202 -103 -489 -192 -705 -219 -30 -3 -63 -8 -72 -9 -156 -30 -584 -24
-768 10 -14 2 -42 7 -64 10 -85 12 -266 57 -380 95 -738 245 -1303 804 -1654
1638 -116 274 -233 684 -277 967 -52 340 -63 433 -81 730 -17 258 -10 818 11
1070 5 57 34 310 40 340 1 11 6 36 9 55 3 19 8 46 10 60 128 745 445 1424 867
1850 89 91 237 220 291 255 8 6 49 32 89 60 185 124 456 239 687 289 385 85
844 59 1227 -69 228 -76 409 -168 600 -303 134 -96 186 -141 340 -296 219
-220 384 -438 555 -737 74 -130 228 -437 275 -549 43 -105 68 -153 97 -191 84
-110 276 -110 354 2 40 58 43 121 9 239 -15 52 -29 102 -31 110 -8 36 -135
488 -144 516 -6 17 -12 40 -14 50 -4 17 -187 680 -221 799 -8 28 -30 106 -49
175 -113 408 -160 568 -177 602 -46 90 -150 121 -247 72 -49 -24 -84 -58 -247
-239 -106 -118 -115 -126 -178 -161 -58 -31 -123 -37 -187 -16 -25 8 -99 43
-165 77 -66 34 -140 73 -165 85 -25 12 -53 27 -63 31 -107 55 -461 177 -602
208 -90 20 -109 23 -195 36 -25 4 -56 8 -70 10 -121 18 -283 27 -503 29 -114
1 -209 1 -210 0z m5708 -5009 c259 -47 460 -192 623 -450 74 -118 162 -343
186 -475 2 -14 11 -63 20 -110 20 -114 24 -139 32 -250 13 -167 7 -558 -11
-663 -2 -12 -9 -60 -15 -107 -6 -47 -15 -101 -20 -120 -5 -19 -12 -51 -15 -70
-3 -19 -8 -43 -11 -52 -3 -9 -7 -25 -9 -35 -17 -79 -78 -256 -121 -348 -15
-33 -28 -62 -28 -65 -1 -3 -20 -39 -43 -80 -118 -214 -290 -382 -500 -489 -71
-36 -62 -37 -253 25 -331 109 -580 292 -756 557 -159 239 -267 550 -318 917
-31 225 -23 562 18 795 36 197 135 438 249 604 95 138 267 289 384 337 21 9
52 22 68 29 41 19 139 43 205 51 30 3 56 8 58 9 6 6 217 -3 257 -10z m-1137
-4092 c77 -49 159 -119 272 -232 178 -180 268 -285 561 -657 96 -122 291 -369
434 -550 143 -181 283 -358 311 -394 28 -36 173 -220 323 -410 150 -190 284
-358 296 -375 13 -16 38 -47 54 -69 17 -21 31 -41 31 -43 0 -17 -176 -230
-245 -297 -266 -256 -550 -403 -930 -482 -220 -46 -556 -52 -755 -14 -178 34
-368 112 -526 216 -128 85 -311 270 -403 408 -197 297 -308 625 -348 1031 -15
151 -9 517 11 620 2 11 7 40 12 65 4 25 8 47 9 50 1 3 7 30 13 61 19 83 68
232 109 328 154 362 416 645 693 747 46 17 46 17 78 -3z"/>
</g>
</svg>
