<svg id="Livello_1" data-name="Livello 1" xmlns="http://www.w3.org/2000/svg" viewBox="0 0 635.75 800.75"><g id="SVGRepo_iconCarrier" data-name="SVGRepo iconCarrier"><path d="M401.1,448.14a30.76,30.76,0,0,1,38.39,48.06L337.32,578.05A30.55,30.55,0,0,1,318,585h-.36a30.61,30.61,0,0,1-19.05-6.83l-102.31-82a30.76,30.76,0,0,1,38.39-48.06l52.5,42.06V349.09a30.73,30.73,0,1,1,61.45,0V490.2Z" style="stroke:#000;stroke-miterlimit:133.3333282470703;stroke-width:0.75px"/><path d="M113,.38A112.74,112.74,0,0,0,.38,113.2V687.55A112.75,112.75,0,0,0,113,800.38H522.71A112.75,112.75,0,0,0,635.38,687.55V244.39a71.89,71.89,0,0,0-13.45-41.86L498.48,30.31A71.64,71.64,0,0,0,440.24.38ZM61.83,113.2A51.24,51.24,0,0,1,113,61.91h297v180.4a30.75,30.75,0,0,0,30.73,30.76H573.92V687.55a51.24,51.24,0,0,1-51.21,51.29H113a51.24,51.24,0,0,1-51.21-51.29Z" style="stroke:#000;stroke-miterlimit:133.3333282470703;stroke-width:0.75px;fill-rule:evenodd"/></g></svg>