<?xml version="1.0" encoding="utf-8"?>
<!-- Generator: Adobe Illustrator 26.1.0, SVG Export Plug-In . SVG Version: 6.00 Build 0)  -->
<svg version="1.1" xmlns="http://www.w3.org/2000/svg" xmlns:xlink="http://www.w3.org/1999/xlink" x="0px" y="0px"
	 viewBox="0 0 916 1000" style="enable-background:new 0 0 916 1000;" xml:space="preserve">
<style type="text/css">
	.st0{fill:#0000C9;}
</style>
<g id="Livello_2">
	<path class="st0" d="M393.1,877.8c15.2,16.5,36.5,24.6,64.9,24.6c60.6,0,87.7-30.3,87.7-98.2c0-47.5-17.6-107.4-52.3-177.9
		l-8.3-16.8l57.2-33l10.4,15.5C620.9,693.6,684.2,745.1,741,745.1c21.4,0,40-9.4,56.8-28.8c17.5-20.2,26.1-41.7,26.1-65.5
		c0-31.8-17.6-56.9-53.9-76.8c-40.2-22-101.8-36.6-183.1-43.3l-18.4-1.5v-64.4l18.3-1.6c157.3-13.5,237.1-53.9,237.1-120.1
		c0-24.3-8.7-45.8-26.7-65.7c-17.5-19.3-35.8-28.7-56.2-28.7c-55.6,0-119,51.3-188.4,152.3l-10.2,14.8l-57.5-31l8.4-17.3
		c34.7-71.2,52.3-131.8,52.3-179.9c0-67.2-27-97.2-87.7-97.2c-28.5,0-49.7,8-64.9,24.6c-15.3,18.6-22.7,41.8-22.7,70.7
		c0,49.4,17.6,110.6,52.3,181.8l8.4,17.3l-57.5,31L363.4,401C294,299.9,230.6,248.7,175,248.7c-22,0-40.6,9.5-57.1,29.1
		c-17.4,20.6-25.8,42-25.8,65.3c0,66.8,79.4,107.2,236.1,120.1l18.4,1.5v64.4l-18.3,1.6C171.5,544.1,92.1,584.6,92.1,650.8
		c0,26.1,8.7,47.9,26.5,66.8c17.5,18.5,36,27.6,56.4,27.6c56.8,0,120.1-51.5,188.2-153.1l10.4-15.5l57,32.9l-8,16.7
		c-34.7,72.5-52.3,133.4-52.3,181C370.3,836,377.8,859.1,393.1,877.8z"/>
</g>
<g id="Livello_1">
	<g>
		<path d="M458,992.8c-51.1,0-94-17.2-127.6-51.2c-33.6-33.9-50.6-77.9-50.6-130.8c0-2,0-4,0-5.9c-34.1,20.4-68.9,30.7-103.9,30.7
			c-47.5,0-89-18.8-123.3-56c-33.9-36.7-51-80-51-128.9C1.6,588.2,35.4,536.6,102,497c-29.2-16.1-52.3-35.3-68.8-57.2
			C12.2,412,1.6,379.4,1.6,343c0-23.5,5-47.2,14.9-70.5c13.4-33.1,34.6-60.4,62.9-80.9c30.1-22.2,62.2-33.4,95.7-33.4
			c32.2,0,67.3,10.9,104.8,32.5c0.1-56.6,16-102.8,47-137.4C358.6,17.9,402.8,0,458,0c51.1,0,94.1,17.4,127.7,51.7
			c33.5,34.2,50.5,78,50.5,130.2v6.6c31.4-20.2,66.7-30.4,105.3-30.4c48.1,0,89.5,19.6,123.2,58.3c33,37.9,49.7,80.5,49.7,126.5
			c0,62-33.7,113.3-100.4,152.8c29.3,16.2,52.3,35.4,68.8,57.4c21,28,31.6,60.8,31.6,97.5c0,48.1-17,91.2-50.4,128.2
			c-34,37.6-75,56.6-122,56.6c-32.2,0-67.7-11.3-105.8-33.6v0.3c0,55.6-15.6,101.5-46.4,136.6C558.3,974.7,514,992.8,458,992.8z
			 M393.1,877.8c15.2,16.5,36.5,24.6,64.9,24.6c60.6,0,87.7-30.3,87.7-98.2c0-47.5-17.6-107.4-52.3-177.9l-8.3-16.8l57.2-33
			l10.4,15.5C620.9,693.6,684.2,745.1,741,745.1c21.4,0,40-9.4,56.8-28.8c17.5-20.2,26.1-41.7,26.1-65.5c0-31.8-17.6-56.9-53.9-76.8
			c-40.2-22-101.8-36.6-183.1-43.3l-18.4-1.5v-64.4l18.3-1.6c157.3-13.5,237.1-53.9,237.1-120.1c0-24.3-8.7-45.8-26.7-65.7
			c-17.5-19.3-35.8-28.7-56.2-28.7c-55.6,0-119,51.3-188.4,152.3l-10.2,14.8l-57.5-31l8.4-17.3c34.7-71.2,52.3-131.8,52.3-179.9
			c0-67.2-27-97.2-87.7-97.2c-28.5,0-49.7,8-64.9,24.6c-15.3,18.6-22.7,41.8-22.7,70.7c0,49.4,17.6,110.6,52.3,181.8l8.4,17.3
			l-57.5,31L363.4,401C294,299.9,230.6,248.7,175,248.7c-22,0-40.6,9.5-57.1,29.1c-17.4,20.6-25.8,42-25.8,65.3
			c0,66.8,79.4,107.2,236.1,120.1l18.4,1.5v64.4l-18.3,1.6C171.5,544.1,92.1,584.6,92.1,650.8c0,26.1,8.7,47.9,26.5,66.8
			c17.5,18.5,36,27.6,56.4,27.6c56.8,0,120.1-51.5,188.2-153.1l10.4-15.5l57,32.9l-8,16.7c-34.7,72.5-52.3,133.4-52.3,181
			C370.3,836,377.8,859.1,393.1,877.8z"/>
	</g>
</g>
</svg>
