<svg id="Livello_1" data-name="Livello 1" xmlns="http://www.w3.org/2000/svg" viewBox="0 0 912.8 992.8"><g id="Livello_1-2" data-name="Livello 1"><path d="M456.4,992.8c-51.1,0-94-17.2-127.6-51.2s-50.6-77.9-50.6-130.8v-5.9c-34.1,20.4-68.9,30.7-103.9,30.7-47.5,0-89-18.8-123.3-56-33.9-36.7-51-80-51-128.9C0,588.2,33.8,536.6,100.4,497c-29.2-16.1-52.3-35.3-68.8-57.2C10.6,412,0,379.4,0,343c0-23.5,5-47.2,14.9-70.5,13.4-33.1,34.6-60.4,62.9-80.9,30.1-22.2,62.2-33.4,95.7-33.4,32.2,0,67.3,10.9,104.8,32.5.1-56.6,16-102.8,47-137.4C357,17.9,401.2,0,456.4,0c51.1,0,94.1,17.4,127.7,51.7s50.5,78,50.5,130.2v6.6c31.4-20.2,66.7-30.4,105.3-30.4,48.1,0,89.5,19.6,123.2,58.3,33,37.9,49.7,80.5,49.7,126.5,0,62-33.7,113.3-100.4,152.8q44,24.3,68.8,57.4c21,28,31.6,60.8,31.6,97.5,0,48.1-17,91.2-50.4,128.2-34,37.6-75,56.6-122,56.6-32.2,0-67.7-11.3-105.8-33.6v.3c0,55.6-15.6,101.5-46.4,136.6C556.7,974.7,512.4,992.8,456.4,992.8Z"/></g></svg>